<mxfile host="app.diagrams.net" modified="2022-07-13T21:48:11.596Z" agent="5.0 (Macintosh; Intel Mac OS X 10_15_7) AppleWebKit/537.36 (KHTML, like Gecko) Chrome/103.0.0.0 Safari/537.36" etag="-V4H5smiEgF_q0BPgS5Y" version="20.0.4" type="github">
  <diagram id="3BPSOvyjyfxISo29sSgV" name="Page-1">
    <mxGraphModel dx="860" dy="518" grid="1" gridSize="10" guides="1" tooltips="1" connect="1" arrows="1" fold="1" page="1" pageScale="1" pageWidth="850" pageHeight="1100" math="0" shadow="0">
      <root>
        <mxCell id="0" />
        <mxCell id="1" parent="0" />
        <mxCell id="nkeR54Wnjavp9a9YE_oZ-1" value="Areas" style="shape=cylinder3;whiteSpace=wrap;html=1;boundedLbl=1;backgroundOutline=1;size=15;" parent="1" vertex="1">
          <mxGeometry x="370" y="120" width="60" height="80" as="geometry" />
        </mxCell>
        <mxCell id="nkeR54Wnjavp9a9YE_oZ-2" value="Projects" style="shape=cylinder3;whiteSpace=wrap;html=1;boundedLbl=1;backgroundOutline=1;size=15;" parent="1" vertex="1">
          <mxGeometry x="250" y="280" width="60" height="80" as="geometry" />
        </mxCell>
        <mxCell id="nkeR54Wnjavp9a9YE_oZ-3" value="Tasks" style="shape=cylinder3;whiteSpace=wrap;html=1;boundedLbl=1;backgroundOutline=1;size=15;" parent="1" vertex="1">
          <mxGeometry x="250" y="440" width="60" height="80" as="geometry" />
        </mxCell>
        <mxCell id="nkeR54Wnjavp9a9YE_oZ-4" value="" style="endArrow=classic;startArrow=classic;html=1;rounded=0;" parent="1" source="nkeR54Wnjavp9a9YE_oZ-3" target="nkeR54Wnjavp9a9YE_oZ-2" edge="1">
          <mxGeometry width="50" height="50" relative="1" as="geometry">
            <mxPoint x="510" y="360" as="sourcePoint" />
            <mxPoint x="560" y="310" as="targetPoint" />
          </mxGeometry>
        </mxCell>
        <mxCell id="nkeR54Wnjavp9a9YE_oZ-5" value="" style="endArrow=classic;startArrow=classic;html=1;rounded=0;" parent="1" source="nkeR54Wnjavp9a9YE_oZ-2" target="nkeR54Wnjavp9a9YE_oZ-1" edge="1">
          <mxGeometry width="50" height="50" relative="1" as="geometry">
            <mxPoint x="440" y="310" as="sourcePoint" />
            <mxPoint x="560" y="310" as="targetPoint" />
          </mxGeometry>
        </mxCell>
        <mxCell id="nkeR54Wnjavp9a9YE_oZ-6" value="Resources" style="shape=cylinder3;whiteSpace=wrap;html=1;boundedLbl=1;backgroundOutline=1;size=15;" parent="1" vertex="1">
          <mxGeometry x="490" y="280" width="60" height="80" as="geometry" />
        </mxCell>
        <mxCell id="nkeR54Wnjavp9a9YE_oZ-7" value="" style="endArrow=classic;startArrow=classic;html=1;rounded=0;" parent="1" source="nkeR54Wnjavp9a9YE_oZ-6" target="nkeR54Wnjavp9a9YE_oZ-1" edge="1">
          <mxGeometry width="50" height="50" relative="1" as="geometry">
            <mxPoint x="510" y="360" as="sourcePoint" />
            <mxPoint x="560" y="310" as="targetPoint" />
          </mxGeometry>
        </mxCell>
        <mxCell id="nkeR54Wnjavp9a9YE_oZ-8" value="Notes" style="shape=cylinder3;whiteSpace=wrap;html=1;boundedLbl=1;backgroundOutline=1;size=15;" parent="1" vertex="1">
          <mxGeometry x="490" y="440" width="60" height="80" as="geometry" />
        </mxCell>
        <mxCell id="nkeR54Wnjavp9a9YE_oZ-9" value="" style="endArrow=classic;startArrow=classic;html=1;rounded=0;" parent="1" source="nkeR54Wnjavp9a9YE_oZ-8" target="nkeR54Wnjavp9a9YE_oZ-6" edge="1">
          <mxGeometry width="50" height="50" relative="1" as="geometry">
            <mxPoint x="570" y="320" as="sourcePoint" />
            <mxPoint x="620" y="270" as="targetPoint" />
          </mxGeometry>
        </mxCell>
        <mxCell id="nkeR54Wnjavp9a9YE_oZ-10" value="" style="endArrow=classic;startArrow=classic;html=1;rounded=0;" parent="1" source="nkeR54Wnjavp9a9YE_oZ-2" target="nkeR54Wnjavp9a9YE_oZ-6" edge="1">
          <mxGeometry width="50" height="50" relative="1" as="geometry">
            <mxPoint x="570" y="320" as="sourcePoint" />
            <mxPoint x="620" y="270" as="targetPoint" />
          </mxGeometry>
        </mxCell>
        <mxCell id="IW-b-C8ZSR9FPM1FpgnA-1" value="Contacts" style="shape=cylinder3;whiteSpace=wrap;html=1;boundedLbl=1;backgroundOutline=1;size=15;" parent="1" vertex="1">
          <mxGeometry x="680" y="440" width="60" height="80" as="geometry" />
        </mxCell>
        <mxCell id="uk2_Gd6toLowwlxuvppi-1" value="" style="endArrow=classic;startArrow=classic;html=1;rounded=0;" parent="1" source="nkeR54Wnjavp9a9YE_oZ-8" target="IW-b-C8ZSR9FPM1FpgnA-1" edge="1">
          <mxGeometry width="50" height="50" relative="1" as="geometry">
            <mxPoint x="400" y="330" as="sourcePoint" />
            <mxPoint x="450" y="280" as="targetPoint" />
          </mxGeometry>
        </mxCell>
      </root>
    </mxGraphModel>
  </diagram>
</mxfile>
